# xmcd
# Copyright (C) 1995-1998 Ti Kan
#
# Track frame offsets:
#       150
#       13500
#       49125
#       65250
#       83400
#       101775
#       117225
#       133500
#       148950
#       169650
#       184125
#       201900
#       215025
#       230475
#       245925
#       263900
#       277850
#
# Disc length: 3955 seconds
#
# Revision: 16
# Processed by: cddbd v1.5.2PL0 Copyright (c) Steve Scherf et al.
# Submitted via: CD-Transfer v1.0
#
DISCID=fd0f7111
DTITLE=Three 6 Mafia Feat. Project Pat, Young D and Superpo - 
DYEAR=2008
DGENRE=
TTITLE0=Bubbly (Re-Issue)
TTITLE1=Viva La Vida (Grant's Uplifting Club Mix)
TTITLE2=Crazy Loop (Mm-Ma-Ma)
TTITLE3=Need U Bad (Radio Edit)
TTITLE4=Bandera De Manos
TTITLE5=Sex On Fire
TTITLE6=Wash My World
TTITLE7=Paper Planes (Re-Issue)
TTITLE8=Bye Bye (Remix)
TTITLE9=July
TTITLE10=Single (Lp Version)
TTITLE11=Nessun Dorma
TTITLE12=Shine On
TTITLE13=City Of New Orleans
TTITLE14=Addiction
TTITLE15=Can't Stop Moving (Radio Edit)
TTITLE16=Lolli Lolli (Pop That Body)
EXTD=
EXTT0=
EXTT1=
EXTT2=
EXTT3=
EXTT4=
EXTT5=
EXTT6=
EXTT7=
EXTT8=
EXTT9=
EXTT10=
EXTT11=
EXTT12=
EXTT13=
EXTT14=
EXTT15=
EXTT16=
PLAYORDER=
